<?xml version="1.0" encoding="UTF-8" standalone="no"?>
<!-- Created with Inkscape (http://www.inkscape.org/) -->

<svg
   xmlns:osb="http://www.openswatchbook.org/uri/2009/osb"
   xmlns:dc="http://purl.org/dc/elements/1.1/"
   xmlns:cc="http://creativecommons.org/ns#"
   xmlns:rdf="http://www.w3.org/1999/02/22-rdf-syntax-ns#"
   xmlns:svg="http://www.w3.org/2000/svg"
   xmlns="http://www.w3.org/2000/svg"
   xmlns:xlink="http://www.w3.org/1999/xlink"
   xmlns:sodipodi="http://sodipodi.sourceforge.net/DTD/sodipodi-0.dtd"
   xmlns:inkscape="http://www.inkscape.org/namespaces/inkscape"
   version="1.1"
   width="640"
   height="480"
   id="svg5084"
   inkscape:version="0.48.5 r10040"
   sodipodi:docname="objects.svg">
  <sodipodi:namedview
     pagecolor="#ffffff"
     bordercolor="#666666"
     borderopacity="1"
     objecttolerance="10"
     gridtolerance="10"
     guidetolerance="10"
     inkscape:pageopacity="0"
     inkscape:pageshadow="2"
     inkscape:window-width="1920"
     inkscape:window-height="1065"
     id="namedview8"
     showgrid="false"
     inkscape:zoom="0.9833334"
     inkscape:cx="-54.414175"
     inkscape:cy="238.08568"
     inkscape:window-x="1916"
     inkscape:window-y="-3"
     inkscape:window-maximized="1"
     inkscape:current-layer="svg5084" />
  <defs
     id="defs5086">
    <inkscape:path-effect
       effect="spiro"
       id="path-effect2998"
       is_visible="true" />
    <inkscape:path-effect
       effect="spiro"
       id="path-effect2997"
       is_visible="true" />
    <linearGradient
       inkscape:collect="always"
       id="linearGradient3758">
      <stop
         style="stop-color:#d40000;stop-opacity:1;"
         offset="0"
         id="stop3760" />
      <stop
         style="stop-color:#d40000;stop-opacity:0;"
         offset="1"
         id="stop3762" />
    </linearGradient>
    <linearGradient
       id="linearGradient5218"
       osb:paint="solid">
      <stop
         style="stop-color:#000000;stop-opacity:1;"
         offset="0"
         id="stop5220" />
    </linearGradient>
    <inkscape:path-effect
       effect="spiro"
       id="path-effect2994"
       is_visible="true" />
    <inkscape:path-effect
       effect="spiro"
       id="path-effect5106" />
    <linearGradient
       inkscape:collect="always"
       xlink:href="#linearGradient3758"
       id="linearGradient3764"
       x1="137.56559"
       y1="237.66613"
       x2="621.79514"
       y2="237.66613"
       gradientUnits="userSpaceOnUse" />
  </defs>
  <metadata
     id="metadata5089">
    <rdf:RDF>
      <cc:Work
         rdf:about="">
        <dc:format>image/svg+xml</dc:format>
        <dc:type
           rdf:resource="http://purl.org/dc/dcmitype/StillImage" />
        <dc:title />
      </cc:Work>
    </rdf:RDF>
  </metadata>
  <path
     style="fill:#003399;fill-opacity:1;fill-rule:evenodd;stroke:none"
     d="m -93.958298,251.72659 c -39.691832,16.66273 -71.361962,47.06116 -96.043852,81.71915 -25.22937,31.06456 -49.47868,69.38972 -42.33413,111.22726 15.68338,43.73643 53.88351,73.39976 77.13749,112.664 18.4399,23.36744 41.9485,42.15549 62.654364,63.39791 50.504485,39.56119 117.390484,39.55214 178.412316,39.15859 38.00904,0.90586 77.51432,-7.22116 108.59732,-29.93246 18.42747,-22.76658 53.08344,-31.33738 62.99378,-61.58615 5.99409,-26.61703 4.42596,-54.43072 7.53894,-81.54539 -0.35559,-24.37981 1.65189,-49.13021 -1.96472,-73.26116 -6.79513,-21.85454 -13.78761,-43.7251 -20.85824,-65.44389 -15.94064,-13.79023 -25.15184,-34.67088 -43.32791,-45.72957 -20.62543,-11.04875 -43.40486,-18.46083 -66.15036,-23.22401 -23.09728,-29.67172 27.29121,-27.85506 43.21562,-14.95585 26.96933,7.53872 53.58325,21.59544 67.8019,46.75874 21.00579,15.49684 28.85127,39.89147 34.71631,64.17989 10.02547,24.13449 15.01111,49.95426 12.88232,76.08922 1.68187,37.38646 -2.83138,74.70469 -5.34205,111.91869 -4.68196,37.44929 -38.5136,59.17558 -67.16601,78.456 -18.24373,22.43518 -47.98046,31.54275 -74.9015,39.2569 -45.745413,8.90109 -92.943059,5.55572 -139.1558604,2.76827 C -47.816976,679.1852 -100.5084,657.41624 -134.77819,616.21548 c -24.14027,-19.94745 -43.73749,-44.2614 -60.53513,-70.50432 -24.57267,-30.15444 -53.24411,-60.11563 -63.58051,-98.59743 -6.91129,-47.08648 16.8987,-91.94492 45.96275,-127.24048 22.99431,-31.38481 49.39232,-60.89881 83.90005,-79.95626 13.18077,-13.35691 55.098934,-22.15584 40.417958,8.59176 l -2.372268,1.78585 -2.972958,1.43199 0,0 z"
     id="path3017"
     inkscape:connector-curvature="0" />
</svg>
