<?xml version="1.0" encoding="UTF-8" standalone="no"?>
<!-- Created with Inkscape (http://www.inkscape.org/) -->

<svg
   xmlns:osb="http://www.openswatchbook.org/uri/2009/osb"
   xmlns:dc="http://purl.org/dc/elements/1.1/"
   xmlns:cc="http://creativecommons.org/ns#"
   xmlns:rdf="http://www.w3.org/1999/02/22-rdf-syntax-ns#"
   xmlns:svg="http://www.w3.org/2000/svg"
   xmlns="http://www.w3.org/2000/svg"
   xmlns:xlink="http://www.w3.org/1999/xlink"
   xmlns:sodipodi="http://sodipodi.sourceforge.net/DTD/sodipodi-0.dtd"
   xmlns:inkscape="http://www.inkscape.org/namespaces/inkscape"
   version="1.1"
   width="640"
   height="480"
   id="svg5084"
   inkscape:version="0.48.5 r10040"
   sodipodi:docname="objects.svg">
  <sodipodi:namedview
     pagecolor="#ffffff"
     bordercolor="#666666"
     borderopacity="1"
     objecttolerance="10"
     gridtolerance="10"
     guidetolerance="10"
     inkscape:pageopacity="0"
     inkscape:pageshadow="2"
     inkscape:window-width="1920"
     inkscape:window-height="1065"
     id="namedview8"
     showgrid="false"
     inkscape:zoom="1.3906434"
     inkscape:cx="298.82756"
     inkscape:cy="27.37035"
     inkscape:window-x="1916"
     inkscape:window-y="-3"
     inkscape:window-maximized="1"
     inkscape:current-layer="svg5084" />
  <defs
     id="defs5086">
    <inkscape:path-effect
       effect="spiro"
       id="path-effect2998"
       is_visible="true" />
    <inkscape:path-effect
       effect="spiro"
       id="path-effect2997"
       is_visible="true" />
    <linearGradient
       inkscape:collect="always"
       id="linearGradient3758">
      <stop
         style="stop-color:#d40000;stop-opacity:1;"
         offset="0"
         id="stop3760" />
      <stop
         style="stop-color:#d40000;stop-opacity:0;"
         offset="1"
         id="stop3762" />
    </linearGradient>
    <linearGradient
       id="linearGradient5218"
       osb:paint="solid">
      <stop
         style="stop-color:#000000;stop-opacity:1;"
         offset="0"
         id="stop5220" />
    </linearGradient>
    <inkscape:path-effect
       effect="spiro"
       id="path-effect2994"
       is_visible="true" />
    <inkscape:path-effect
       effect="spiro"
       id="path-effect5106" />
    <linearGradient
       inkscape:collect="always"
       xlink:href="#linearGradient3758"
       id="linearGradient3764"
       x1="137.56559"
       y1="237.66613"
       x2="621.79514"
       y2="237.66613"
       gradientUnits="userSpaceOnUse" />
  </defs>
  <metadata
     id="metadata5089">
    <rdf:RDF>
      <cc:Work
         rdf:about="">
        <dc:format>image/svg+xml</dc:format>
        <dc:type
           rdf:resource="http://purl.org/dc/dcmitype/StillImage" />
        <dc:title />
      </cc:Work>
    </rdf:RDF>
  </metadata>
  <path
     style="font-size:medium;font-style:normal;font-variant:normal;font-weight:normal;font-stretch:normal;text-indent:0;text-align:start;text-decoration:none;line-height:normal;letter-spacing:normal;word-spacing:normal;text-transform:none;direction:ltr;block-progression:tb;writing-mode:lr-tb;text-anchor:start;baseline-shift:baseline;color:#000000;fill:#ff3300;fill-opacity:1;stroke:none;stroke-width:1px;marker:none;visibility:visible;display:inline;overflow:visible;enable-background:accumulate;font-family:Sans;-inkscape-font-specification:Sans"
     d="m -118.92332,325.96014 c 58.762421,-56.98229 155.702641,-66.88075 225.82351,-25.23161 49.12695,28.52632 80.50044,83.89081 81.31927,140.2417 1.38194,58.28857 -28.40982,118.27168 -79.70203,147.98979 -52.603629,31.05962 -123.978269,26.52863 -171.530909,-12.37753 -36.613856,-28.97728 -55.394411,-78.21446 -46.617951,-124.06685 7.54776,-45.33193 39.673891,-87.39202 84.178171,-101.56221 43.6926,-14.56898 96.22667,0.54261 123.68972,38.19154 21.734189,28.23402 26.726749,69.21492 9.037359,100.63859 -16.963009,31.99754 -54.497909,55.01174 -91.192939,47.62618 -17.8138197,-3.65635 -35.48379,-13.75958 -44.95669,-29.39085 3.88762,-5.40082 12.81041,-5.73891 18.32137,-2.54974 5.9891103,3.33995 9.2002903,10.05958 15.8922303,12.44254 24.3076997,12.45311 54.9049097,3.93667 73.8076697,-14.5915 23.077489,-21.42951 30.986739,-57.51808 17.86346,-86.27898 -14.66821,-37.48434 -56.54953,-59.6196 -95.6908097,-56.33083 -38.1713603,2.44953 -73.5034303,28.38334 -87.7435203,63.93825 -21.360291,49.70915 -6.005594,114.11687 38.75595,146.04186 42.3039003,30.85785 101.90771,30.859 146.76041,5.36915 39.645949,-21.26648 68.858989,-62.13691 73.661269,-106.91643 9.17041,-66.73883 -29.49415,-136.81639 -90.604299,-165.30634 -53.50609,-25.6407 -119.02578,-17.55904 -167.661031,15.28016 -45.47319,29.90898 -77.84067,80.11698 -82.21044,134.40502 -7.00406,67.57532 25.83002,136.93278 80.901676,176.52596 29.128535,21.25078 64.055605,34.40463 99.933235,37.21474 4.93642,2.56259 5.75209,10.2208 2.0551,14.21982 -29.35741,-1.81922 -58.5448,-9.00417 -84.44994,-23.05942 -64.813571,-34.03454 -112.119711,-103.33123 -113.675411,-177.16442 -1.09406,-57.50301 21.0115,-116.2264 64.03557,-155.29859 z"
     id="spiral"
     inkscape:connector-curvature="0" />
  <path
     sodipodi:type="arc"
     style="fill:#006600;fill-opacity:1;fill-rule:evenodd;stroke:none"
     id="ball"
     sodipodi:cx="14.491525"
     sodipodi:cy="392.79663"
     sodipodi:rx="2.2881355"
     sodipodi:ry="2.2881355"
     d="m 16.77966,392.79663 a 2.2881355,2.2881355 0 1 1 -4.576271,0 2.2881355,2.2881355 0 1 1 4.576271,0 z"
     transform="matrix(2.885618,0,0,3.1998877,-36.673671,-778.53656)" />
</svg>
