<?xml version="1.0" encoding="UTF-8" standalone="no"?>
<!-- Created with Inkscape (http://www.inkscape.org/) -->

<svg
   xmlns:osb="http://www.openswatchbook.org/uri/2009/osb"
   xmlns:dc="http://purl.org/dc/elements/1.1/"
   xmlns:cc="http://creativecommons.org/ns#"
   xmlns:rdf="http://www.w3.org/1999/02/22-rdf-syntax-ns#"
   xmlns:svg="http://www.w3.org/2000/svg"
   xmlns="http://www.w3.org/2000/svg"
   xmlns:xlink="http://www.w3.org/1999/xlink"
   xmlns:sodipodi="http://sodipodi.sourceforge.net/DTD/sodipodi-0.dtd"
   xmlns:inkscape="http://www.inkscape.org/namespaces/inkscape"
   version="1.1"
   width="640"
   height="480"
   id="svg5084"
   inkscape:version="0.48.5 r10040"
   sodipodi:docname="objects.svg">
  <sodipodi:namedview
     pagecolor="#ffffff"
     bordercolor="#666666"
     borderopacity="1"
     objecttolerance="10"
     gridtolerance="10"
     guidetolerance="10"
     inkscape:pageopacity="0"
     inkscape:pageshadow="2"
     inkscape:window-width="1920"
     inkscape:window-height="1065"
     id="namedview8"
     showgrid="false"
     inkscape:zoom="0.9833334"
     inkscape:cx="-268.99043"
     inkscape:cy="238.08568"
     inkscape:window-x="1916"
     inkscape:window-y="-3"
     inkscape:window-maximized="1"
     inkscape:current-layer="svg5084" />
  <defs
     id="defs5086">
    <inkscape:path-effect
       effect="spiro"
       id="path-effect2998"
       is_visible="true" />
    <inkscape:path-effect
       effect="spiro"
       id="path-effect2997"
       is_visible="true" />
    <linearGradient
       inkscape:collect="always"
       id="linearGradient3758">
      <stop
         style="stop-color:#d40000;stop-opacity:1;"
         offset="0"
         id="stop3760" />
      <stop
         style="stop-color:#d40000;stop-opacity:0;"
         offset="1"
         id="stop3762" />
    </linearGradient>
    <linearGradient
       id="linearGradient5218"
       osb:paint="solid">
      <stop
         style="stop-color:#000000;stop-opacity:1;"
         offset="0"
         id="stop5220" />
    </linearGradient>
    <inkscape:path-effect
       effect="spiro"
       id="path-effect2994"
       is_visible="true" />
    <inkscape:path-effect
       effect="spiro"
       id="path-effect5106" />
    <linearGradient
       inkscape:collect="always"
       xlink:href="#linearGradient3758"
       id="linearGradient3764"
       x1="137.56559"
       y1="237.66613"
       x2="621.79514"
       y2="237.66613"
       gradientUnits="userSpaceOnUse" />
  </defs>
  <metadata
     id="metadata5089">
    <rdf:RDF>
      <cc:Work
         rdf:about="">
        <dc:format>image/svg+xml</dc:format>
        <dc:type
           rdf:resource="http://purl.org/dc/dcmitype/StillImage" />
        <dc:title />
      </cc:Work>
    </rdf:RDF>
  </metadata>
  <path
     style="font-size:medium;font-style:normal;font-variant:normal;font-weight:normal;font-stretch:normal;text-indent:0;text-align:start;text-decoration:none;line-height:normal;letter-spacing:normal;word-spacing:normal;text-transform:none;direction:ltr;block-progression:tb;writing-mode:lr-tb;text-anchor:start;baseline-shift:baseline;color:#000000;fill:#990000;fill-opacity:1;stroke:none;stroke-width:16.60000038;marker:none;visibility:visible;display:inline;overflow:visible;enable-background:accumulate;font-family:Sans;-inkscape-font-specification:Sans"
     d="M -13.793963,35.920015 C -156.44943,36.49399 -294.01024,129.42145 -346.28313,262.17419 c -40.91397,100.74451 -29.25245,222.11501 33.33331,311.44735 52.78807,78.2612 140.54572,133.75825 235.343357,141.14222 93.871138,7.9249 190.703873,-30.32987 251.681823,-102.17025 53.90205,-61.89117 81.06136,-148.45431 65.13389,-229.87512 -15.78886,-87.30805 -77.18964,-166.01187 -160.534751,-198.20348 -67.79179,-27.18667 -148.647494,-21.31807 -210.437209,18.0301 -59.2063,36.37176 -102.34983,100.60573 -106.53125,170.8125 -5.18023,72.83507 31.5254,147.53775 94.65625,184.78125 46.889357,28.64386 108.102459,35.16971 158.781247,12.28125 50.866716,-21.77549 91.100213,-70.38836 96.366843,-126.4619 1.77205,-15.88343 2.0052,-34.06922 -8.14809,-47.2881 -13.326485,-13.29597 -41.299329,-6.46997 -43.625003,13.375 -2.628943,14.35763 2.421464,29.62109 -3.40625,43.34375 -14.254322,50.23648 -68.276183,84.27385 -119.75,77.53125 -54.657487,-5.26239 -101.434867,-48.24866 -116.232547,-100.37424 -14.11435,-46.48849 -4.23198,-99.39734 25.67005,-137.62576 40.07181,-54.19848 112.130787,-83.17486 178.454348,-69.44739 68.98617,12.7581 127.801312,64.81446 152.093472,130.08856 23.07138,58.83714 17.91036,127.8572 -13.12158,182.67359 -40.63236,74.72801 -122.465869,124.79026 -207.550688,126.8123 -66.541632,2.55907 -132.610012,-23.56205 -181.438052,-68.47081 -58.20184,-52.64744 -93.44728,-130.06701 -92.28125,-208.90625 0.13652,-77.31733 33.99847,-152.96948 89.11713,-206.51581 C -167.42911,118.63953 -80.729522,83.924 5.7987073,88.778976 94.530813,92.781065 179.71793,136.25772 237.17426,203.28619 c 62.43988,71.34395 94.75629,169.01863 83.71928,263.79007 -7.01572,67.29017 -34.30095,131.72928 -74.71875,185.46875 -7.59977,11.8704 -1.75134,28.34178 10.375,34.5625 10.3239,6.17403 24.94533,4.23699 32.09747,-5.81639 15.49321,-16.74857 25.94052,-37.50157 37.7191,-57.00227 59.72656,-110.22158 66.2494,-249.60414 11.10567,-362.92497 C 287.0474,154.37387 187.54742,70.104733 71.174787,44.826265 43.362166,38.564539 14.766841,35.497224 -13.793963,35.920015 z"
     id="path3773"
     inkscape:connector-curvature="0" />
</svg>
